<svg id="Capa_1" enable-background="new 0 0 512 512" height="512" viewBox="0 0 512 512" width="512" xmlns="http://www.w3.org/2000/svg"><g><path d="m256 0c-141.385 0-256 114.615-256 256s114.615 256 256 256 256-114.615 256-256-114.615-256-256-256zm0 326.567c-38.911 0-70.567-31.656-70.567-70.567s31.656-70.567 70.567-70.567 70.567 31.656 70.567 70.567-31.656 70.567-70.567 70.567z" fill="#fece85"/><path d="m256 0c-141.382 0-256 114.618-256 256 0 28.052 4.512 55.053 12.857 80.313 20.501 20.387 48.738 33.007 79.86 33.007 48.109 0 89.327-30.143 105.727-72.545-8.19-11.517-13.011-25.6-13.011-40.775 0-38.91 31.658-70.567 70.567-70.567 38.91 0 70.567 31.657 70.567 70.567 0 19.409-7.871 37.014-20.604 49.778v60.451c0 28.402 23.107 51.509 51.509 51.509 13.753 0 26.692-5.357 36.417-15.092 9.735-9.725 15.092-22.664 15.092-36.417v-79.324c0-5.676 4.625-10.302 10.302-10.302 3.709 0 6.15 1.896 7.283 3.018 1.123 1.133 3.018 3.575 3.018 7.283v27.815c0 28.402 23.107 51.509 51.509 51.509 2.081 0 4.152-.124 6.202-.381 15.835-33.284 24.705-70.525 24.705-109.847 0-141.382-114.618-256-256-256z" fill="#fece85"/><path d="m512 256c0 39.322-8.87 76.563-24.704 109.848-2.05.258-4.121.381-6.202.381-28.402 0-51.509-23.107-51.509-51.509v-27.815c0-3.709-1.896-6.15-3.018-7.283-1.133-1.123-3.575-3.018-7.283-3.018-5.676 0-10.302 4.626-10.302 10.302v79.324c0 13.753-5.357 26.692-15.092 36.417-9.725 9.735-22.664 15.092-36.417 15.092-28.402 0-51.509-23.107-51.509-51.509v-60.451c12.733-12.764 20.604-30.37 20.604-49.778 0-38.91-31.657-70.567-70.567-70.567s-70.567 31.657-70.567 70.567c0 15.175 4.821 29.257 13.011 40.775-16.4 42.402-57.618 72.545-105.727 72.545-31.122 0-59.359-12.62-79.86-33.007-8.346-25.261-12.858-52.262-12.858-80.314 0-141.382 114.618-256 256-256s256 114.618 256 256z" fill="#fec165"/><path d="m512 256v58.72c0 8.53-3.461 16.256-9.055 21.85-1.617 1.617-3.4 3.049-5.336 4.255-4.78 3.049-10.446 4.801-16.514 4.801-17.07 0-30.905-13.835-30.905-30.905v-27.815c0-8.53-3.461-16.256-9.055-21.85s-13.32-9.055-21.85-9.055c-17.07 0-30.905 13.835-30.905 30.905v79.324c0 8.53-3.461 16.256-9.055 21.85s-13.32 9.055-21.85 9.055c-17.07 0-30.905-13.835-30.905-30.905v-110.23c0-38.91-31.657-70.567-70.567-70.567s-70.567 31.657-70.567 70.567c0 51.21-41.506 92.716-92.716 92.716-51.214 0-92.72-41.506-92.72-92.716 0-141.382 114.618-256 256-256s256 114.618 256 256z" fill="#fd8087"/><path d="m51.509 256c0 31.39 5.645 61.461 15.988 89.245-38.951-10.982-67.497-46.781-67.497-89.245 0-141.382 114.618-256 256-256 3.255 0 6.5.062 9.735.185.979.031 1.947.072 2.915.124 1.174.051 2.349.123 3.523.196 1.071.062 2.143.134 3.204.216 2.132.165 4.255.35 6.377.556-129.287 12.919-230.245 122.036-230.245 254.723z" fill="#fe646f"/><path d="m51.509 256c0-132.687 100.958-241.804 230.245-254.723-8.468-.844-17.059-1.277-25.754-1.277-141.382 0-256 114.618-256 256s114.618 256 256 256c8.695 0 17.286-.433 25.755-1.277-129.288-12.919-230.246-122.036-230.246-254.723z" fill="#fec165"/><path d="m281.755 1.277c-2.122-.206-4.244-.391-6.377-.556-1.061-.082-2.133-.154-3.204-.216-1.174-.072-2.349-.144-3.523-.196-.968-.052-1.937-.093-2.915-.124-3.236-.123-6.481-.185-9.736-.185-141.382 0-256 114.618-256 256 0 42.464 28.546 78.263 67.497 89.245-10.343-27.784-15.988-57.855-15.988-89.245 0-132.687 100.958-241.804 230.246-254.723z" fill="#fe646f"/><g><g><path d="m47.56 255.141c-4.267 0-7.726-3.459-7.726-7.726v-30.905c0-4.267 3.459-7.726 7.726-7.726s7.726 3.459 7.726 7.726v30.905c0 4.267-3.459 7.726-7.726 7.726z" fill="#fef0ae"/></g><g><path d="m454.825 215.994c-4.267 0-7.726-3.459-7.726-7.726v-30.905c0-4.267 3.459-7.726 7.726-7.726s7.726 3.459 7.726 7.726v30.905c0 4.267-3.459 7.726-7.726 7.726z" fill="#fef0ae"/></g><g><path d="m116.218 189.979c-3.508 0-6.682-2.404-7.517-5.966l-7.046-30.092c-.972-4.155 1.607-8.312 5.762-9.285 4.158-.971 8.312 1.607 9.284 5.762l7.046 30.092c.972 4.155-1.607 8.312-5.762 9.285-.591.137-1.184.204-1.767.204z" fill="#fef0ae"/></g><g><path d="m236.007 148.543c-3.508 0-6.682-2.404-7.517-5.966l-7.046-30.092c-.972-4.155 1.607-8.312 5.762-9.285 4.156-.97 8.311 1.607 9.284 5.762l7.046 30.092c.972 4.155-1.607 8.312-5.762 9.285-.591.138-1.184.204-1.767.204z" fill="#fef0ae"/></g><g><path d="m365.924 127.042c-3.353 0-6.44-2.199-7.419-5.581-1.186-4.099 1.176-8.383 5.275-9.569l29.688-8.59c4.098-1.183 8.383 1.175 9.569 5.275 1.186 4.099-1.176 8.383-5.275 9.569l-29.688 8.59c-.716.207-1.44.306-2.15.306z" fill="#fef0ae"/></g><g><path d="m97.791 301.989c-1.26 0-2.537-.309-3.719-.959-3.738-2.058-5.101-6.757-3.043-10.494l14.904-27.074c2.058-3.738 6.755-5.102 10.494-3.043 3.738 2.058 5.101 6.757 3.043 10.494l-14.904 27.074c-1.407 2.557-4.049 4.002-6.775 4.002z" fill="#fef0ae"/></g><g><path d="m373.312 217.053c-1.26 0-2.537-.309-3.719-.959-3.738-2.058-5.101-6.757-3.043-10.494l14.904-27.074c2.059-3.738 6.758-5.101 10.494-3.043 3.738 2.058 5.101 6.757 3.043 10.494l-14.904 27.074c-1.407 2.557-4.049 4.002-6.775 4.002z" fill="#fef0ae"/></g><g><path d="m155.584 95.568c-1.966 0-3.932-.745-5.439-2.238-3.031-3.004-3.053-7.896-.05-10.927l21.754-21.953c3.004-3.03 7.895-3.053 10.927-.05 3.031 3.004 3.053 7.896.05 10.927l-21.754 21.953c-1.51 1.525-3.499 2.288-5.488 2.288z" fill="#fef0ae"/></g><g><path d="m317.899 83.016c-1.64 0-3.292-.52-4.694-1.594l-24.53-18.799c-3.387-2.596-4.029-7.446-1.433-10.832 2.597-3.387 7.446-4.028 10.832-1.433l24.53 18.799c3.387 2.596 4.029 7.446 1.433 10.832-1.521 1.984-3.817 3.027-6.138 3.027z" fill="#fef0ae"/></g></g></g></svg>