<svg aria-hidden="true" style="position: absolute; width: 0; height: 0; overflow: hidden;" version="1.1" xmlns="http://www.w3.org/2000/svg" xmlns:xlink="http://www.w3.org/1999/xlink">
<defs>
<symbol id="logo" viewBox="0 0 190 85">
<path d="M112.759 42.492c0 .693-.022 1.386 0 2.08.236 7.045-1.964 13.394-5.496 19.38-1.185 2.007-2.317 4.049-3.337 6.146-.842 1.724-2.011 2.932-3.83 3.639-1.016.393-1.958 1.075-2.81 1.777-3.92 3.236-8.367 5.553-13.123 7.186-3.16 1.083-6.413 2.037-9.845 1.994-1.023-.012-2.049.303-3.074.306-1.025.003-2.05-.33-3.065-.286-4.426.19-8.526-1.172-12.597-2.6-4.443-1.558-8.366-4.02-12.057-6.953-5.207-4.137-8.918-9.349-11.647-15.315-1.47-3.215-2.667-6.534-3.005-10.103-.057-.592-.253-1.178-.427-1.753-1.238-4.003-.526-7.928.24-11.916.586-3.05 1.189-6.064 2.33-8.96 3.015-7.66 7.803-13.933 14.435-18.86C50.981 4.151 57.17 1.63 63.897.545c7.72-1.243 15.258-.348 22.57 2.558 3.65 1.454 7.093 3.296 10.1 5.735 2.804 2.275 5.334 4.937 7.724 7.657 2.166 2.466 3.704 5.402 5.077 8.398 2.144 4.681 3.542 9.526 3.4 14.731-.031.962-.008 1.916-.009 2.868zm-2.964-9.483c-.214-1.635-.347-3.53-.747-5.37-1.14-5.292-4.205-9.423-8.291-12.796-2.32-1.918-4.848-3.585-7.34-5.28-.844-.574-1.825-1.102-2.81-1.279-2.535-.466-5.098-.902-7.666-1.033-4.458-.227-8.462-1.377-11.827-4.475-2.478-2.28-5.175-2.5-7.75-.494-2.918 2.272-6.24 3.606-9.624 4.926-2.481.968-4.87 2.187-7.256 3.39-1.993 1.008-3.154 2.58-3.126 4.96.016 1.336-.596 2.451-1.833 3.19a28.225 28.225 0 00-2.967 2.054c-2.639 2.076-4.695 4.413-5.139 8.041-.35 2.87-1.22 5.706-3.187 8.07a5.41 5.41 0 00-1.174 2.838c-.181 2.145-.106 4.315-.053 6.473.015.577.266 1.197.561 1.705.68 1.2 1.42 2.366 2.217 3.492 1.932 2.684 3.611 5.435 4 8.844.375 3.303 1.971 5.995 4.672 8.05 3.911 2.976 7.682 6.136 11.652 9.036 2.134 1.562 4.418 2.928 7.233 3.244 2.815.317 5.574 1.083 8.097 2.5a4.57 4.57 0 001.707.523c3.56.384 6.857-.498 9.983-2.163.98-.522 1.99-.996 3.004-1.45 2.444-1.093 5.153-1.811 7.281-3.334 2.368-1.698 4.9-2.45 7.617-2.925 1.174-.206 2.134-.69 2.898-1.562.913-1.036 1.757-2.131 2.707-3.132.983-1.032 1.692-2.13 1.864-3.602.264-2.256 1.229-4.247 2.454-6.16 2.074-3.234 3.253-6.806 3.867-10.605.161-.996.253-1.839-.241-2.716-1.428-2.53-.845-5.404-1.297-8.098-.228-1.456.298-3.05.519-4.865l-.005.003zM92.611 7.73c-.603-.667-.794-.968-1.067-1.155-.493-.34-1.03-.619-1.554-.914-4.482-2.523-9.39-3.75-14.404-4.63C74.578.85 73.519.93 72.49.97c-.267.01-.587.27-.756.505-.078.106.097.48.245.657a9.614 9.614 0 004.21 2.9 28.187 28.187 0 008.816 1.655c1.274.035 2.544.276 3.813.449 1.082.153 2.163.337 3.792.592zM54.54 80.442c-3.008-2.457-5.645-4.653-8.328-6.79-2.221-1.77-4.49-3.479-6.761-5.184-.255-.192-.658-.187-1.216-.33 2.736 4.59 11.871 11.563 16.305 12.304zM34.274 23.107c1.814-1.386 3.492-2.843 5.335-4.05 2.583-1.682 3.57-3.773 2.96-7.364-1.833 1.498-3.14 3.303-4.553 4.943-1.494 1.73-2.602 3.789-3.847 5.725-.096.156.06.465.105.746zm61.174 52.385c-1.692-.116-3.396.183-4.458 1.096-2.014 1.731-4.41 2.602-6.848 3.468-1.28.454-2.487 1.12-3.693 1.757-.167.087-.198.555-.163.831.011.093.463.245.648.182 2.19-.745 4.452-1.346 6.525-2.344 2.542-1.219 4.93-2.763 7.362-4.195.255-.143.39-.48.627-.795zm-64.646-24.01c-.487 1.433-.39 2.227-.084 3.072.848 2.344 1.363 4.818 2.892 6.866.567.76.683 2.458 1.729 2.092.92-.32-.157-1.665-.22-2.571-.241-3.464-2.064-6.256-4.317-9.459zM47.215 8.345l.227.342c1.265-.469 2.54-.912 3.792-1.414a585.95 585.95 0 008.135-3.332c.545-.23 1.044-.599 1.51-.972.13-.106.106-.464.066-.686-.022-.099-.279-.206-.427-.213a2.67 2.67 0 00-.747.124c-3.675 1.043-7.14 2.587-10.456 4.461-.776.44-1.405 1.121-2.1 1.69zm64.535 37.202c.222-.258.396-.365.408-.487.358-3.774-.042-7.514-.559-11.244-.026-.188-.286-.456-.463-.478-.195-.026-.5.136-.618.31a1.99 1.99 0 00-.352.935 35.816 35.816 0 00.604 9.19c.117.61.623 1.148.98 1.774zM29.914 35.133c1.434-.547 1.649-1.537 1.802-2.43.375-2.178 1.312-4.275 1.002-6.579-1.499 2.75-2.828 5.534-2.803 9.009zM64.62 82.966c-3.214-1.421-4.086-1.57-6.948-1.172 1.213.46 2.305 1.189 3.403 1.2 1.145.018 2.384 1.419 3.546-.028z" fill="#2E2520"/><path d="M71.25 54.701c-2.198-.04-3.708-.959-4.826-2.735-1.042-1.657-2.775-2.517-4.361-3.538-2-1.286-3.628-2.737-4.09-5.344-.32-1.768.052-3.303.77-4.7.603-1.166 1.679-2.25 2.809-2.943 1.225-.752 2.24-1.462 2.806-2.851.64-1.599 2.253-1.696 3.682-1.983 1.345-.27 2.713-.445 4.04-.783 1.813-.463 3.46-.32 4.785 1.092 1.024 1.095 2.22 1.88 3.554 2.545 1.387.69 1.845 1.497 1.41 2.94-.295.98-.01 1.646.356 2.428.399.853.81 1.719 1.084 2.62.913 2.995-.138 5.518-2.95 6.852-1.744.826-3.079 1.928-3.513 3.866-.174.781-.661 1.225-1.35 1.427-1.392.407-2.803.743-4.207 1.107zm9.227-12.561c.044-5.279-3.959-9.5-9.165-9.506-4.67 0-9.37 3.16-9.552 9.214-.146 4.846 3.892 9.36 9.157 9.376 6.41.032 9.435-4.417 9.56-9.084zm-18.768 5.046c0-.676.065-1.023-.01-1.335-.69-2.867-1.14-5.707.427-8.469.113-.198-.148-.607-.235-.918-.307.099-.678.12-.911.31-2.587 2.122-3.742 7.219.729 10.412zm9.609-15.876c1.083.396 1.7.678 2.347.852 2.385.631 4.42 1.765 5.835 3.855.28.412.64 1.023 1.174.554.284-.25.377-1.015.213-1.398-.22-.508-.722-1.142-1.204-1.242-1.31-.274-2.028-1.222-2.881-2.049-1.436-1.378-3.04-1.81-5.484-.572zm-.147 20.777l-.033-.199c-.687 0-1.38-.058-2.057.025-.347.042-.663.337-.993.519.3.265.561.683.907.769 1.848.465 3.71.566 5.533-.147.312-.123.658-.282.854-.533.173-.213.23-.591.194-.878-.014-.107-.445-.267-.658-.233-1.252.196-2.498.443-3.742.674l-.005.003zm9.45-5.414c1.281-.237 1.853-.958 1.928-2.068.055-.934.041-1.872-.041-2.805-.02-.246-.364-.466-.56-.698-.284.27-.862.632-.81.794.52 1.618-.567 3.067-.516 4.774v.003zM92.334 53.982c-.074.037-.37.285-.692.32-.292.034-.719-.064-.9-.269a45.97 45.97 0 01-2.608-3.184c-.213-.288-.3-1.065-.18-1.132.401-.22 1.183-.451 1.357-.26 1.03 1.134 1.935 2.382 2.866 3.605.09.123.063.333.157.92zM48.745 62.87c.476.038 1.416.066 2.332.223.229.04.534.486.534.752 0 .267-.264.727-.492.784-1.782.442-3.555.55-5.132-.64a.798.798 0 01-.25-.655c.033-.178.31-.426.495-.44.684-.057 1.37-.025 2.513-.025zM104.581 25.4l.675.368c-.191.342-.309.892-.587.991-1.283.471-2.6.847-3.938 1.123-.385.076-.944-.302-1.3-.615-.41-.36-.165-1.145.351-1.224 1.518-.233 3.047-.412 4.799-.643zM59.226 70.498c.712.333 1.309.427 1.6.781.798.99 1.527 2.03 2.184 3.118.32.518.028 1.078-.51 1.227-.296.083-.832-.158-1.05-.426a33.896 33.896 0 01-2.413-3.287c-.17-.272.094-.817.189-1.413zM87.19 29.266c.046-.302 0-.649.143-.782.192-.175.604-.32.801-.225.27.13.445.483.63.761a83.76 83.76 0 011.52 2.344c.22.355.515.733.534 1.116.02.354-.195.813-.461 1.056-.149.136-.76.048-.91-.14-.986-1.253-2.169-2.425-2.256-4.13zM90.258 15.964c-.213 1.28-.298 2.22-.547 3.121a2.582 2.582 0 01-.853 1.235c-.283.228-.776.195-1.174.278-.032-.371-.148-.76-.081-1.112.208-1.089.486-2.165.736-3.246.02-.084.014-.173.038-.255.197-.652.621-1.149 1.301-.88.343.137.503.735.58.86zM71.862 24.28c.6.074 1.375.115 2.116.294.253.06.626.515.582.711-.077.351-.369.813-.677.917a2.564 2.564 0 01-1.503.007c-.853-.271-1.648-.362-2.5-.006-.559.234-1.084-.012-1.233-.568-.2-.746.362-1.107.992-1.213.673-.111 1.367-.093 2.223-.142zM85.17 61.014c-.242 1.058-.427 1.986-.688 2.893-.051.178-.427.418-.585.377-.284-.069-.683-.293-.74-.525a3.493 3.493 0 01-.043-1.533c.2-.93.398-1.812.021-2.761-.179-.455-.128-1.18.564-1.178.372 0 .908.46 1.075.84.272.609.29 1.325.396 1.887zM74.671 60.742c-.139.249-.206.542-.388.668-1.124.773-2.25 1.55-3.432 2.227-.302.172-.832.066-1.217-.048-.564-.168-.682-.91-.213-1.21 1.293-.828 2.593-1.65 3.926-2.412.214-.123.64.01.916.146.186.094.266.396.408.63zM60.357 11.037c.182.107.526.2.572.37.446 1.641.876 3.288 1.23 4.95.098.462-.513.719-.923.443-1.29-.868-2.093-4.08-1.341-5.424.078-.133.268-.2.462-.338zM76.297 15.701c-.388-.259-.807-.39-.864-.615-.06-.242.14-.657.357-.852a36.538 36.538 0 012.967-2.382c.346-.244 1.066-.417 1.333-.226.63.442.299 1.065-.14 1.521-.588.615-1.173 1.263-1.852 1.76-.52.373-1.188.534-1.8.794zM51.769 24.377l-.943.89c-.27-.29-.668-.532-.781-.88-.453-1.36-.832-2.743-1.191-4.13-.05-.191.107-.581.267-.647.261-.107.691-.15.89 0 .391.288.838.675.966 1.109.336 1.13.513 2.31.792 3.658zM41.443 47.167c-.866 1.584-1.523 3.207-3.134 4.071-.271.145-.87-.04-1.16-.271-.494-.392 0-.716.24-1.05.756-1.04 1.455-2.125 2.258-3.125.207-.257.733-.384 1.09-.349.244.023.442.436.706.724zM51.217 47.301c.452.261.779.339.84.51.1.282.152.724 0 .919-.248.311-.671.49-1.036.699-.947.542-1.88 1.114-2.864 1.577-.3.14-.843.098-1.11-.092-.549-.39-.356-1.017.086-1.293 1.35-.845 2.77-1.585 4.084-2.32zM100.135 40.126c-.348.783-.836 1.965-1.416 3.1-.09.176-.65.272-.888.167-.221-.1-.462-.544-.418-.784.233-1.263.49-2.53.882-3.749.12-.372.66-.71 1.074-.834.154-.046.556.533.747.886.109.2.019.507.019 1.214zM41.172 30.711c1.53 1.373 1.348 3.236 1.518 4.957.032.32-.366.777-.684 1.008-.166.121-.843-.074-.859-.186a98.87 98.87 0 01-.575-5.234c-.012-.15.348-.332.6-.545zM76.95 73.207c.257.068.51.15.757.247.92.426 1.845.84 2.742 1.31.427.221.853.498 1.16.852.354.41-.05 1.198-.543 1.09-1.67-.36-3.3-.863-4.548-2.11-.184-.184-.18-.645-.12-.951.035-.173.357-.292.552-.438zM56.643 31.213c.088.276.391.704.285.973-.56 1.422-1.21 2.812-1.87 4.191-.08.17-.427.32-.631.292-.18-.022-.427-.273-.474-.464-.35-1.538.753-4.29 1.983-4.982.127-.072.33-.01.707-.01zM104.358 54.557c-.192-.121-.592-.27-.8-.556-.083-.114.186-.634.417-.8a38.022 38.022 0 013.167-2.096c.295-.171.907-.184 1.124.009.199.178.229.852.049 1.1-.916 1.273-2.07 2.245-3.957 2.343zM98.019 65.53c-.792-.082-1.137-.09-1.467-.164-.14-.031-.347-.196-.35-.304a1.138 1.138 0 01.18-.687 1.32 1.32 0 01.641-.4c1.22-.366 2.442-.734 3.681-1.031.269-.064.835.113.871.266.081.365-.016.805-.159 1.172-.076.194-.378.356-.61.426-1.06.291-2.125.551-2.787.722zM61.265 56.723c-.088.372-.23 1.196-.504 1.973-.068.193-.602.378-.847.308s-.534-.474-.526-.727a51.45 51.45 0 01.243-4.308c.031-.312.427-.587.655-.879.273.289.716.543.786.875.154.741.121 1.521.193 2.758zM118.465 11.747c0-3.045.738-5.354 2.212-6.926 1.491-1.59 3.401-2.385 5.73-2.385 2.328 0 4.18.686 5.553 2.058 1.391 1.372 2.086 3.564 2.086 6.575 0 3.012-.737 5.287-2.211 6.826-1.475 1.54-3.443 2.31-5.906 2.31-2.128 0-3.87-.611-5.227-1.833-.704-.635-1.256-1.514-1.659-2.635-.385-1.137-.578-2.467-.578-3.99zm7.866-9.06c-1.692 0-3.082.753-4.171 2.259-1.073 1.506-1.609 3.714-1.609 6.625 0 2.912.511 5.036 1.533 6.375 1.022 1.338 2.379 2.007 4.071 2.007 1.709 0 3.1-.752 4.172-2.258 1.089-1.523 1.633-3.723 1.633-6.6 0-2.895-.519-5.02-1.558-6.375-1.022-1.355-2.379-2.033-4.071-2.033zM138.393 20.104h-2.086V2.537h2.086v8.08h8.167v-8.08h2.086v17.567h-2.086v-9.235h-8.167v9.235zM159.368 20.104h-.327l2.186-17.567h.83l5.277 16.237 5.252-16.237h.829l2.187 17.567h-2.086L171.782 6.05l-4.549 14.054h-1.583l-4.599-13.878-1.683 13.878zM189.523 2.537c.318.318.477.728.477 1.23 0 .418-.092.844-.276 1.28l-4.499 9.11v5.947h-2.086v-5.396l-5.026-12.171h2.136l4.8 11.318 4.373-8.809c.184-.418.276-.853.276-1.305 0-.451-.125-.803-.377-1.054l.202-.15zM3.543 24.72a83.964 83.964 0 013.808-.089c1.27 0 2.598.133 3.986.398 1.417.266 2.805.767 4.162 1.504 1.388.707 2.554 1.636 3.499 2.786.974 1.12 1.757 2.61 2.347 4.467.59 1.857.886 4.112.886 6.766 0 2.653-.443 5.041-1.329 7.164-.856 2.093-2.037 3.7-3.543 4.82-2.922 2.182-6.45 3.273-10.583 3.273-1.447 0-2.968-.059-4.562-.177H0V24.72h3.543zm.133 30.559c.62.058 1.402.088 2.347.088.944 0 1.653-.015 2.125-.044.473-.03 1.122-.148 1.949-.354a11.39 11.39 0 002.303-.929c.708-.383 1.446-.943 2.214-1.68a10.994 10.994 0 002.037-2.698c1.27-2.417 1.904-5.572 1.904-9.464 0-2.771-.34-5.16-1.018-7.164-.68-2.034-1.462-3.538-2.347-4.511a9.14 9.14 0 00-3.145-2.3c-1.24-.59-2.229-.928-2.967-1.017a21.868 21.868 0 00-2.568-.132c-.974 0-1.92.044-2.834.132V55.28zM119.184 55.632h-.575V24.676h1.505l18.423 28.613V24.674h.575v30.957h-3.232l-16.696-25.65v25.65zM166.381 24.675h.576v17.69c0 4.629-.915 8.034-2.746 10.216-1.83 2.152-4.221 3.228-7.174 3.228-1.86 0-3.439-.162-4.738-.486-1.299-.354-2.524-.988-3.676-1.902-2.361-1.828-3.542-5.513-3.542-11.056v-17.69h3.675v17.646c0 5.366.812 8.948 2.436 10.746.827.885 1.683 1.49 2.568 1.814.916.324 2.008.486 3.277.486 2.835 0 5.093-1.032 6.776-3.096 1.712-2.093 2.568-5.41 2.568-9.95V24.676zM182.064 55.632h-3.675V25.118h-7.661v-.442h19.042v.442h-7.706v30.514z" fill="#2E2520"/>
</symbol>

<symbol id="soc-facebook" viewBox="0 0 32 32">
<path d="M21.328 5.312h2.923v-5.088c-1.232-0.143-2.66-0.224-4.108-0.224-0.052 0-0.104 0-0.156 0l0.008-0c-4.213 0-7.099 2.65-7.099 7.52v4.48h-4.646v5.688h4.646v14.312h5.699v-14.31h4.459l0.707-5.688h-5.168v-3.922c0-1.643 0.443-2.768 2.734-2.768z"></path>
</symbol>
<symbol id="soc-instagram" viewBox="0 0 32 32">
<path d="M31.968 9.408c-0.074-1.701-0.349-2.869-0.742-3.882-0.424-1.111-1.054-2.059-1.85-2.837l-0.001-0.001c-0.78-0.792-1.724-1.419-2.778-1.827l-0.054-0.018c-1.019-0.394-2.181-0.667-3.882-0.742-1.712-0.082-2.256-0.101-6.602-0.101-4.344 0-4.888 0.019-6.595 0.094-1.699 0.074-2.869 0.349-3.88 0.742-1.112 0.424-2.060 1.054-2.839 1.85l-0.001 0.001c-0.791 0.78-1.418 1.724-1.825 2.778l-0.018 0.054c-0.395 1.019-0.669 2.181-0.744 3.882-0.082 1.712-0.101 2.256-0.101 6.602 0 4.344 0.019 4.888 0.094 6.595 0.075 1.701 0.35 2.869 0.744 3.882 0.426 1.11 1.055 2.057 1.849 2.837l0.001 0.001c0.8 0.813 1.77 1.443 2.832 1.843 1.019 0.395 2.182 0.67 3.882 0.744 1.707 0.075 2.251 0.094 6.595 0.094 4.346 0 4.89-0.019 6.595-0.094 1.701-0.074 2.869-0.349 3.882-0.742 2.157-0.85 3.833-2.526 4.664-4.628l0.019-0.055c0.394-1.019 0.669-2.182 0.744-3.882 0.075-1.707 0.093-2.251 0.093-6.595s-0.006-4.888-0.080-6.595zM29.088 22.474c-0.070 1.563-0.333 2.406-0.55 2.97-0.552 1.399-1.64 2.486-3.004 3.024l-0.036 0.012c-0.56 0.219-1.411 0.482-2.968 0.55-1.688 0.075-2.194 0.094-6.464 0.094-4.269 0-4.782-0.019-6.464-0.094-1.563-0.069-2.406-0.331-2.97-0.55-0.721-0.269-1.334-0.676-1.836-1.192l-0.001-0.001c-0.517-0.503-0.924-1.117-1.184-1.803l-0.011-0.034c-0.218-0.563-0.48-1.413-0.549-2.97-0.075-1.688-0.094-2.195-0.094-6.464 0-4.27 0.019-4.784 0.094-6.464 0.069-1.563 0.331-2.406 0.549-2.97 0.269-0.722 0.678-1.337 1.198-1.837l0.002-0.002c0.504-0.517 1.119-0.923 1.806-1.182l0.034-0.011c0.56-0.219 1.411-0.48 2.968-0.55 1.688-0.074 2.195-0.093 6.464-0.093 4.275 0 4.782 0.019 6.464 0.093 1.563 0.069 2.406 0.331 2.97 0.55 0.693 0.256 1.325 0.662 1.837 1.194 0.531 0.52 0.938 1.144 1.195 1.84 0.218 0.56 0.48 1.411 0.549 2.968 0.075 1.688 0.094 2.194 0.094 6.464 0 4.269-0.019 4.768-0.094 6.458z"></path>
<path d="M16.059 7.782c-4.539 0.002-8.218 3.682-8.219 8.221v0c0 0 0 0.001 0 0.002 0 4.541 3.681 8.222 8.222 8.222s8.222-3.681 8.222-8.222c0-4.541-3.681-8.222-8.222-8.222-0.001 0-0.001 0-0.002 0h0zM16.059 21.334c-2.945-0-5.332-2.388-5.332-5.333s2.388-5.333 5.333-5.333c0 0 0.001 0 0.001 0h-0c2.946 0 5.334 2.388 5.334 5.334s-2.388 5.334-5.334 5.334v0zM26.525 7.458c0 1.060-0.86 1.92-1.92 1.92s-1.92-0.86-1.92-1.92v0c0-1.060 0.86-1.92 1.92-1.92s1.92 0.86 1.92 1.92v0z"></path>
</symbol>
<symbol id="soc-twitter" viewBox="0 0 32 32">
<path d="M32 6.078c-1.1 0.493-2.376 0.857-3.713 1.028l-0.068 0.007c1.36-0.817 2.382-2.078 2.873-3.579l0.013-0.046c-1.197 0.722-2.591 1.273-4.076 1.573l-0.084 0.014c-1.2-1.279-2.9-2.076-4.787-2.076-3.622 0-6.558 2.936-6.558 6.558 0 0.001 0 0.003 0 0.004v-0c0 0.52 0.043 1.021 0.152 1.496-5.454-0.266-10.28-2.88-13.522-6.861-0.564 0.949-0.899 2.092-0.902 3.313v0.001c0 2.272 1.171 4.286 2.914 5.451-1.091-0.030-2.107-0.325-2.994-0.823l0.033 0.017v0.072c0.003 3.165 2.236 5.807 5.213 6.44l0.043 0.008c-0.499 0.136-1.071 0.215-1.662 0.215-0.020 0-0.041-0-0.061-0l0.003 0c-0.419 0-0.843-0.024-1.242-0.112 0.85 2.598 3.261 4.509 6.13 4.57-2.215 1.746-5.045 2.8-8.122 2.8-0.004 0-0.008 0-0.013 0h0.001c-0.018 0-0.040 0-0.062 0-0.531 0-1.055-0.034-1.569-0.099l0.061 0.006c2.826 1.846 6.287 2.944 10.004 2.944 0.021 0 0.042-0 0.063-0h-0.003c12.072 0 18.672-10 18.672-18.669 0-0.288-0.010-0.57-0.024-0.848 1.299-0.936 2.39-2.064 3.258-3.355l0.030-0.047z"></path>
<symbol id="menu" viewBox="0 0 30 16"><rect width="30" height="2" rx="1" fill="#2E2520"/><rect y="7" width="30" height="2" rx="1" fill="#2E2520"/><rect y="14" width="30" height="2" rx="1" fill="#2E2520"/>
</symbol>
<symbol id="close-menu" viewBox="0 0 18 18"><path d="M17.0744 18C17.3115 18 17.5486 17.9098 17.7288 17.7283C18.0904 17.3667 18.0904 16.7803 17.7288 16.4187L1.58088 0.271234C1.21923 -0.0904114 0.632896 -0.0904114 0.271242 0.271234C-0.0904121 0.63288 -0.0904121 1.2192 0.271242 1.58107L16.4189 17.7283C16.6004 17.9087 16.8375 18 17.0744 18Z" fill="#2E2520"/>
<path d="M0.925385 18C1.16249 18 1.39938 17.9098 1.57975 17.7283L17.7288 1.58107C18.0904 1.2192 18.0904 0.63288 17.7288 0.271234C17.3671 -0.0904114 16.7808 -0.0904114 16.4189 0.271234L0.271242 16.4187C-0.0904121 16.7803 -0.0904121 17.3667 0.271242 17.7283C0.452747 17.9087 0.689631 18 0.925385 18Z" fill="#2E2520"/>
</symbol>
<symbol id="icon-four-star" viewBox="0 0 181 32">
<path fill="#ab816c" style="fill: var(--color1, #ab816c)" d="M14.732 3.903c0.4-1.228 2.137-1.228 2.536 0l2.025 6.232c0.179 0.538 0.678 0.92 1.267 0.92h6.553c1.292 0 1.828 1.653 0.784 2.413l-5.301 3.851c-0.335 0.245-0.549 0.637-0.549 1.078 0 0.147 0.024 0.289 0.068 0.422l-0.003-0.009 2.024 6.232c0.4 1.229-1.007 2.251-2.051 1.491l-5.301-3.851c-0.217-0.159-0.489-0.255-0.784-0.255s-0.567 0.096-0.788 0.257l0.004-0.003-5.301 3.851c-1.044 0.76-2.451-0.263-2.051-1.491l2.024-6.232c0.041-0.123 0.065-0.265 0.065-0.412 0-0.442-0.215-0.833-0.546-1.076l-0.004-0.003-5.301-3.851c-1.044-0.76-0.507-2.413 0.784-2.413h6.552c0 0 0 0 0 0 0.589 0 1.088-0.381 1.265-0.911l0.003-0.009 2.025-6.232z"></path>
<path fill="none" stroke="#ab816c" style="stroke: var(--color1, #ab816c)" stroke-linejoin="miter" stroke-linecap="butt" stroke-miterlimit="4" stroke-width="1.3333" d="M164.699 4.109c0.089-0.271 0.339-0.463 0.635-0.463s0.546 0.192 0.633 0.458l0.001 0.005 2.024 6.231c0.268 0.809 1.018 1.383 1.902 1.383 0 0 0 0 0 0h6.552c0.368 0 0.666 0.299 0.666 0.667 0 0.22-0.107 0.416-0.272 0.537l-0.002 0.001-5.301 3.852c-0.502 0.368-0.825 0.955-0.825 1.618 0 0.221 0.036 0.433 0.102 0.632l-0.004-0.014 2.025 6.232c0.021 0.062 0.033 0.133 0.033 0.207 0 0.368-0.298 0.667-0.667 0.667-0.148 0-0.284-0.048-0.395-0.129l0.002 0.001-5.3-3.852c-0.326-0.239-0.734-0.382-1.176-0.382s-0.85 0.143-1.182 0.386l0.006-0.004-5.3 3.852c-0.109 0.080-0.245 0.128-0.393 0.128-0.368 0-0.667-0.298-0.667-0.667 0-0.075 0.012-0.146 0.035-0.213l-0.001 0.005 2.025-6.231c0.062-0.185 0.098-0.397 0.098-0.618 0-0.663-0.322-1.25-0.819-1.614l-0.006-0.004-5.301-3.852c-0.167-0.123-0.274-0.318-0.274-0.539 0-0.368 0.298-0.666 0.666-0.667h6.552c0 0 0 0 0 0 0.884 0 1.634-0.573 1.898-1.369l0.004-0.014 2.024-6.231z"></path>
<path fill="#ab816c" style="fill: var(--color1, #ab816c)" d="M126.732 3.903c0.4-1.228 2.137-1.228 2.536 0l2.025 6.232c0.179 0.538 0.678 0.92 1.267 0.92h6.553c1.292 0 1.828 1.653 0.784 2.413l-5.301 3.851c-0.335 0.245-0.549 0.637-0.549 1.078 0 0.147 0.024 0.289 0.068 0.422l-0.003-0.009 2.024 6.232c0.4 1.229-1.007 2.251-2.051 1.491l-5.301-3.851c-0.217-0.159-0.489-0.255-0.784-0.255s-0.567 0.096-0.788 0.257l0.004-0.003-5.301 3.851c-1.044 0.76-2.451-0.263-2.051-1.491l2.024-6.232c0.041-0.123 0.065-0.265 0.065-0.412 0-0.442-0.215-0.833-0.546-1.076l-0.004-0.003-5.301-3.851c-1.045-0.76-0.507-2.413 0.784-2.413h6.552c0 0 0 0 0 0 0.589 0 1.088-0.381 1.265-0.911l0.003-0.009 2.025-6.232zM89.399 3.903c0.4-1.228 2.137-1.228 2.536 0l2.025 6.232c0.179 0.538 0.678 0.92 1.267 0.92h6.553c1.292 0 1.829 1.653 0.784 2.413l-5.301 3.851c-0.335 0.245-0.549 0.637-0.549 1.078 0 0.147 0.024 0.289 0.068 0.422l-0.003-0.009 2.024 6.232c0.4 1.229-1.007 2.251-2.051 1.491l-5.301-3.851c-0.217-0.159-0.489-0.255-0.784-0.255s-0.567 0.096-0.788 0.257l0.004-0.003-5.301 3.851c-1.044 0.76-2.451-0.263-2.051-1.491l2.024-6.232c0.041-0.123 0.065-0.265 0.065-0.412 0-0.442-0.215-0.833-0.546-1.076l-0.004-0.003-5.301-3.851c-1.044-0.76-0.507-2.413 0.784-2.413h6.552c0 0 0 0 0 0 0.589 0 1.088-0.381 1.265-0.911l0.003-0.009 2.025-6.232zM52.065 3.903c0.4-1.228 2.137-1.228 2.536 0l2.025 6.232c0.179 0.538 0.678 0.92 1.267 0.92h6.553c1.292 0 1.828 1.653 0.784 2.413l-5.301 3.851c-0.335 0.245-0.549 0.637-0.549 1.078 0 0.147 0.024 0.289 0.068 0.422l-0.003-0.009 2.024 6.232c0.4 1.229-1.007 2.251-2.051 1.491l-5.301-3.851c-0.217-0.159-0.489-0.255-0.784-0.255s-0.567 0.096-0.788 0.257l0.004-0.003-5.3 3.851c-1.045 0.76-2.452-0.263-2.053-1.491l2.027-6.232c0.041-0.123 0.065-0.264 0.065-0.411 0-0.442-0.215-0.834-0.547-1.077l-0.004-0.003-5.301-3.851c-1.045-0.76-0.507-2.413 0.784-2.413h6.552c0 0 0 0 0 0 0.589 0 1.088-0.381 1.265-0.911l0.003-0.009 2.025-6.232z"></path>
</symbol>
<symbol id="icon-five-stars" viewBox="0 0 181 32">
<path fill="#ab816c" style="fill: var(--color1, #ab816c)" d="M14.732 3.903c0.4-1.228 2.137-1.228 2.536 0l2.025 6.232c0.179 0.538 0.678 0.92 1.267 0.92h6.553c1.292 0 1.828 1.653 0.784 2.413l-5.301 3.851c-0.335 0.245-0.549 0.637-0.549 1.078 0 0.147 0.024 0.289 0.068 0.422l-0.003-0.009 2.024 6.232c0.4 1.229-1.007 2.251-2.051 1.491l-5.301-3.851c-0.217-0.159-0.489-0.255-0.784-0.255s-0.567 0.096-0.788 0.257l0.004-0.003-5.301 3.851c-1.044 0.76-2.451-0.263-2.051-1.491l2.024-6.232c0.041-0.123 0.065-0.265 0.065-0.412 0-0.442-0.215-0.833-0.546-1.076l-0.004-0.003-5.301-3.851c-1.044-0.76-0.507-2.413 0.784-2.413h6.552c0 0 0 0 0 0 0.589 0 1.088-0.381 1.265-0.911l0.003-0.009 2.025-6.232zM164.065 3.903c0.399-1.228 2.137-1.228 2.536 0l2.025 6.232c0.179 0.539 0.679 0.92 1.268 0.92 0 0 0 0 0 0h6.552c1.292 0 1.828 1.653 0.784 2.413l-5.301 3.851c-0.335 0.245-0.549 0.637-0.549 1.078 0 0.147 0.024 0.289 0.068 0.422l-0.003-0.009 2.024 6.232c0.4 1.229-1.007 2.251-2.051 1.491l-5.301-3.851c-0.217-0.159-0.489-0.255-0.784-0.255s-0.567 0.096-0.788 0.257l0.004-0.003-5.301 3.851c-1.044 0.76-2.451-0.263-2.051-1.491l2.024-6.232c0.041-0.123 0.065-0.265 0.065-0.412 0-0.442-0.215-0.833-0.546-1.076l-0.004-0.003-5.301-3.851c-1.044-0.76-0.508-2.413 0.784-2.413h6.552c0 0 0 0 0 0 0.589 0 1.088-0.381 1.265-0.911l0.003-0.009 2.025-6.232zM126.732 3.903c0.4-1.228 2.137-1.228 2.536 0l2.025 6.232c0.179 0.538 0.678 0.92 1.267 0.92h6.553c1.292 0 1.828 1.653 0.784 2.413l-5.301 3.851c-0.335 0.245-0.549 0.637-0.549 1.078 0 0.147 0.024 0.289 0.068 0.422l-0.003-0.009 2.024 6.232c0.4 1.229-1.007 2.251-2.051 1.491l-5.301-3.851c-0.217-0.159-0.489-0.255-0.784-0.255s-0.567 0.096-0.788 0.257l0.004-0.003-5.301 3.851c-1.044 0.76-2.451-0.263-2.051-1.491l2.024-6.232c0.041-0.123 0.065-0.265 0.065-0.412 0-0.442-0.215-0.833-0.546-1.076l-0.004-0.003-5.301-3.851c-1.045-0.76-0.507-2.413 0.784-2.413h6.552c0 0 0 0 0 0 0.589 0 1.088-0.381 1.265-0.911l0.003-0.009 2.025-6.232zM89.399 3.903c0.4-1.228 2.137-1.228 2.536 0l2.025 6.232c0.179 0.538 0.678 0.92 1.267 0.92h6.553c1.292 0 1.829 1.653 0.784 2.413l-5.301 3.851c-0.335 0.245-0.549 0.637-0.549 1.078 0 0.147 0.024 0.289 0.068 0.422l-0.003-0.009 2.024 6.232c0.4 1.229-1.007 2.251-2.051 1.491l-5.301-3.851c-0.217-0.159-0.489-0.255-0.784-0.255s-0.567 0.096-0.788 0.257l0.004-0.003-5.301 3.851c-1.044 0.76-2.451-0.263-2.051-1.491l2.024-6.232c0.041-0.123 0.065-0.265 0.065-0.412 0-0.442-0.215-0.833-0.546-1.076l-0.004-0.003-5.301-3.851c-1.044-0.76-0.507-2.413 0.784-2.413h6.552c0 0 0 0 0 0 0.589 0 1.088-0.381 1.265-0.911l0.003-0.009 2.025-6.232zM52.065 3.903c0.4-1.228 2.137-1.228 2.536 0l2.025 6.232c0.179 0.538 0.678 0.92 1.267 0.92h6.553c1.292 0 1.828 1.653 0.784 2.413l-5.301 3.851c-0.335 0.245-0.549 0.637-0.549 1.078 0 0.147 0.024 0.289 0.068 0.422l-0.003-0.009 2.024 6.232c0.4 1.229-1.007 2.251-2.051 1.491l-5.301-3.851c-0.217-0.159-0.489-0.255-0.784-0.255s-0.567 0.096-0.788 0.257l0.004-0.003-5.3 3.851c-1.045 0.76-2.452-0.263-2.053-1.491l2.027-6.232c0.041-0.123 0.065-0.264 0.065-0.411 0-0.442-0.215-0.834-0.547-1.077l-0.004-0.003-5.301-3.851c-1.045-0.76-0.507-2.413 0.784-2.413h6.552c0 0 0 0 0 0 0.589 0 1.088-0.381 1.265-0.911l0.003-0.009 2.025-6.232z"></path>
</symbol>
<symbol id="icon-phone" viewBox="0 0 32 32">
<path d="M29.43 21.002c-0.010 0-0.022 0-0.033 0-2.028 0-3.979-0.332-5.801-0.946l0.128 0.037c-0.894-0.305-1.991-0.025-2.535 0.534l-3.599 2.718c-4.172-2.228-6.742-4.798-8.938-8.938l2.634-3.505c0.47-0.468 0.761-1.116 0.761-1.831 0-0.281-0.045-0.553-0.128-0.806l0.005 0.018c-0.577-1.697-0.911-3.652-0.911-5.685 0-0.011 0-0.022 0-0.033v0.002c-0.002-1.415-1.157-2.567-2.57-2.567h-5.876c-1.415 0-2.567 1.152-2.567 2.567 0 16.229 13.201 29.433 29.43 29.433 1.415 0 2.567-1.152 2.567-2.567v-5.858c0-1.418-1.152-2.57-2.567-2.57z"></path>
</symbol>
<symbol id="icon-people" viewBox="0 0 35 32">
<path fill="#674d40" style="fill: var(--color2, #674d40)" d="M11.847 0c-3.683 0.006-6.667 2.99-6.673 6.673v0.001c0.005 3.684 2.99 6.669 6.673 6.675h0.001c3.684-0.005 6.669-2.991 6.675-6.674v-0c-0.006-3.684-2.991-6.668-6.674-6.673h-0.001zM11.847 12.229c-3.070-0.004-5.558-2.492-5.56-5.562v-0c0.007-3.067 2.491-5.552 5.558-5.56h0.001c3.070 0.002 5.559 2.49 5.563 5.56v0c-0.005 3.069-2.491 5.556-5.559 5.563h-0.001zM25.516 2.771c-2.766 0.002-5.007 2.244-5.009 5.009v0c0.003 2.765 2.244 5.006 5.009 5.008h0c2.765-0.003 5.005-2.243 5.008-5.008v-0c-0.002-2.765-2.243-5.006-5.008-5.009h-0zM25.516 11.683c-2.151-0.002-3.895-1.745-3.897-3.896v-0c0.002-2.152 1.745-3.896 3.897-3.897h0c2.151 0.002 3.895 1.746 3.896 3.897v0c-0.002 2.151-1.745 3.894-3.896 3.896h-0z"></path>
<path fill="#674d40" style="fill: var(--color2, #674d40)" d="M34.476 20.131c-0.505-3.043-2.396-5.609-5.616-6.953 0 0-1.427 1.079-3.344 1.044-2.096-0.040-3.344-1.044-3.344-1.044s-1.556 0.58-2.812 1.788c-1.16-1.031-3.119-1.869-3.119-1.869s-1.795 1.364-4.4 1.344c-2.737-0.020-4.389-1.344-4.389-1.344s-5.916 2.033-7.165 8.933c0 0-1.337 3.657 1.76 9.123h19.607s1.392-2.423 1.637-3.896h9.752c2.395-3.631 1.433-7.125 1.433-7.125zM20.964 30.040h-18.227c-2.381-4.524-1.352-7.827-1.352-7.827 0.598-3.509 2.855-6.387 5.921-7.834l0.064-0.027c1.285 0.756 2.83 1.203 4.48 1.203s3.195-0.447 4.522-1.226l-0.042 0.023c3.129 1.475 5.387 4.352 5.975 7.799l0.009 0.063c-0.007 0 0.983 4.067-1.351 7.827zM32.395 26.144h-8.879c0.341-1.965-0.109-4.116-0.109-4.116-0.42-2.484-1.574-4.647-3.227-6.313l0.001 0.001c0.573-0.519 1.207-0.948 1.903-1.283 2.096 1.2 4.764 1.2 6.859 0 2.32 1.12 3.99 3.267 4.429 5.836l0.007 0.047s0.812 2.756-0.983 5.827z"></path>
</symbol>
<symbol id="icon-location" viewBox="0 0 23 32">
<path d="M11.733 1.195c6.47 0 11.733 5.261 11.733 11.733 0 2.56-0.811 4.992-2.34 7.031l-8.67 11.678c-0.021 0.030-0.055 0.041-0.079 0.064-0.161 0.183-0.396 0.297-0.657 0.297-0.29 0-0.547-0.141-0.707-0.359l-0.002-0.002c-2.498-3.328-7.074-9.551-8.832-11.898l-0.004-0.006-0.011-0.013c-1.354-1.879-2.165-4.227-2.165-6.764 0-0.011 0-0.021 0-0.032v0.002c0-6.47 5.263-11.731 11.733-11.731zM11.733 19.255c3.491-0.010 6.319-2.837 6.33-6.326v-0.001c-0.008-3.493-2.837-6.322-6.329-6.332h-0.001c-3.492 0.010-6.32 2.838-6.33 6.329v0.001c0.010 3.492 2.838 6.32 6.329 6.33h0.001z"></path>
</symbol>
<symbol id="icon-clock" viewBox="0 0 32 32">
<path fill="#674d40" style="fill: var(--color2, #674d40)" d="M16 0c-8.823 0-16 7.177-16 16 0 8.822 7.177 16 16 16 8.822 0 16-7.178 16-16 0-8.823-7.178-16-16-16zM16 30.934c-8.234 0-14.934-6.7-14.934-14.934s6.7-14.934 14.934-14.934 14.934 6.7 14.934 14.934-6.7 14.934-14.934 14.934z"></path>
<path fill="#674d40" style="fill: var(--color2, #674d40)" d="M16.534 13.878v-5.409c0-0.295-0.239-0.534-0.534-0.534s-0.534 0.239-0.534 0.534v5.409c-0.747 0.2-1.324 0.777-1.52 1.51l-0.003 0.015h-3.809c-0.008-0-0.017-0.001-0.026-0.001-0.295 0-0.534 0.239-0.534 0.534s0.239 0.534 0.534 0.534c0.009 0 0.018-0 0.027-0.001l-0.001 0h3.809c0.238 0.918 1.066 1.6 2.057 1.6 1.178 0 2.134-0.956 2.134-2.132 0-0.992-0.684-1.819-1.6-2.058zM16 17.002c-0.589-0.001-1.066-0.478-1.066-1.068s0.478-1.068 1.068-1.068c0 0 0.001 0 0.001 0h-0c0.589 0.001 1.066 0.478 1.066 1.068s-0.478 1.068-1.068 1.068c-0 0-0.001 0-0.001 0h0zM16 5.268c0.294 0 0.534-0.238 0.534-0.532v-0.534c0-0.295-0.239-0.534-0.534-0.534s-0.534 0.239-0.534 0.534v0 0.534c0 0.294 0.239 0.532 0.534 0.532zM16 26.602c-0.295 0-0.534 0.239-0.534 0.534v0 0.532c0 0.295 0.239 0.534 0.534 0.534s0.534-0.239 0.534-0.534v-0.532c0-0 0-0.001 0-0.001 0-0.294-0.238-0.532-0.532-0.532-0 0-0.001 0-0.001 0h0zM27.734 15.402h-0.534c-0.008-0-0.017-0.001-0.026-0.001-0.295 0-0.534 0.239-0.534 0.534s0.239 0.534 0.534 0.534c0.009 0 0.018-0 0.027-0.001l-0.001 0h0.534c0.008 0 0.017 0.001 0.026 0.001 0.295 0 0.534-0.239 0.534-0.534s-0.239-0.534-0.534-0.534c-0.009 0-0.018 0-0.027 0.001l0.001-0zM4.8 15.402h-0.534c-0.294 0-0.533 0.239-0.533 0.533s0.239 0.533 0.533 0.533v0h0.534c0.008 0 0.017 0.001 0.026 0.001 0.295 0 0.534-0.239 0.534-0.534s-0.239-0.534-0.534-0.534c-0.009 0-0.018 0-0.027 0.001l0.001-0zM23.919 7.261l-0.378 0.378c-0.096 0.097-0.156 0.23-0.156 0.377 0 0.295 0.239 0.534 0.534 0.534 0.148 0 0.281-0.060 0.378-0.157v0l0.376-0.378c0.096-0.096 0.156-0.23 0.156-0.377 0-0.294-0.239-0.533-0.533-0.533-0.147 0-0.28 0.060-0.377 0.156v0zM7.703 23.478l-0.376 0.378c-0.096 0.096-0.156 0.23-0.156 0.377 0 0.294 0.239 0.533 0.533 0.533 0.147 0 0.28-0.060 0.377-0.156l0.378-0.378c0.096-0.097 0.156-0.23 0.156-0.377 0-0.295-0.239-0.534-0.534-0.534-0.147 0-0.281 0.060-0.378 0.157v0zM24.297 23.478c-0.097-0.097-0.23-0.156-0.378-0.156-0.295 0-0.534 0.239-0.534 0.534 0 0.147 0.060 0.281 0.156 0.378v0l0.378 0.376c0.096 0.097 0.23 0.158 0.378 0.158s0.281-0.060 0.378-0.158l0-0c0.097-0.096 0.157-0.23 0.157-0.378s-0.060-0.281-0.157-0.378l-0-0-0.378-0.376zM8.081 7.261c-0.097-0.097-0.23-0.156-0.378-0.156-0.295 0-0.534 0.239-0.534 0.534 0 0.147 0.060 0.281 0.156 0.378v0l0.378 0.376c0.096 0.097 0.23 0.157 0.378 0.157s0.281-0.060 0.378-0.157l0-0c0.097-0.096 0.157-0.23 0.157-0.378s-0.060-0.281-0.157-0.378l-0-0-0.378-0.376z"></path>
</symbol>
<symbol id="icon-chef-hat" viewBox="0 0 35 32">
<path fill="#674d40" style="fill: var(--color2, #674d40)" d="M25.046 8.506c0 0 0 0 0 0-0.27 0-0.489-0.218-0.49-0.488v-0c-0.079-3.896-3.256-7.024-7.164-7.024s-7.085 3.128-7.164 7.017l-0 0.007c0 0.27-0.219 0.49-0.49 0.49s-0.49-0.219-0.49-0.49v0c0.060-4.451 3.683-8.037 8.143-8.037s8.083 3.585 8.143 8.031l0 0.006c-0.001 0.269-0.219 0.488-0.488 0.488h-0z"></path>
<path fill="#674d40" style="fill: var(--color2, #674d40)" d="M26.474 19.581c-0.26-0.013-0.467-0.227-0.467-0.489 0-0.26 0.203-0.473 0.46-0.489l0.001-0c3.88-0.023 7.022-3.148 7.073-7.018l0-0.005c-0.039-3.895-3.206-7.037-7.106-7.037-0.019 0-0.037 0-0.056 0l0.003-0c-0.723 0-1.441 0.106-2.133 0.316-0.035 0.009-0.075 0.014-0.117 0.014-0.27 0-0.49-0.219-0.49-0.49 0-0.209 0.132-0.388 0.317-0.458l0.003-0.001c0.72-0.228 1.548-0.359 2.407-0.359 0.004 0 0.009 0 0.013 0h-0.001c0.015-0 0.034-0 0.052-0 4.441 0 8.046 3.58 8.086 8.012l0 0.004c-0.054 4.41-3.625 7.969-8.036 8.001l-0.003 0h-0.007zM8.309 19.581h-0.007c-4.412-0.033-7.983-3.591-8.037-7.995l-0-0.005c0.040-4.436 3.646-8.017 8.087-8.017 0.018 0 0.036 0 0.055 0h-0.003c0.819-0.001 1.635 0.12 2.418 0.359 0.216 0.054 0.373 0.247 0.373 0.476 0 0.27-0.219 0.49-0.49 0.49-0.061 0-0.119-0.011-0.173-0.032l0.003 0.001c-0.634-0.2-1.363-0.316-2.119-0.316-0.004 0-0.009 0-0.013 0h0.001c-0.016-0-0.035-0-0.055-0-3.901 0-7.067 3.142-7.106 7.034l-0 0.004c0.052 3.875 3.193 6.999 7.070 7.023h0.002c0.269 0.002 0.486 0.22 0.486 0.489 0 0.27-0.219 0.489-0.489 0.489-0.001 0-0.002 0-0.003 0h0z"></path>
<path fill="#674d40" style="fill: var(--color2, #674d40)" d="M26.474 31.757h-18.165c-0.27 0-0.49-0.219-0.49-0.49v-12.174c-0-0.008-0.001-0.017-0.001-0.026 0-0.27 0.219-0.49 0.49-0.49s0.49 0.219 0.49 0.49c0 0.009-0 0.018-0.001 0.027l0-0.001v11.684h17.188v-11.684c0-0.27 0.219-0.489 0.489-0.489s0.489 0.219 0.489 0.489v0 12.174c0 0.27-0.219 0.49-0.49 0.49v0z"></path>
<path fill="#674d40" style="fill: var(--color2, #674d40)" d="M29.881 27.014h-18.166c-0.008 0-0.017 0.001-0.026 0.001-0.27 0-0.49-0.219-0.49-0.49s0.219-0.49 0.49-0.49c0.009 0 0.018 0 0.027 0.001l-0.001-0h18.166c0.259 0.014 0.464 0.228 0.464 0.489s-0.205 0.475-0.462 0.489l-0.001 0z"></path>
</symbol>
<symbol id="icon-chat" viewBox="0 0 47 32">
<path fill="#674d40" style="fill: var(--color2, #674d40)" d="M35.985 13.843c0-8.362-8.812-13.843-17.61-13.843-8.836 0-17.616 5.507-17.616 13.843 0 3.153 1.382 6.237 3.889 8.684 0.068 0.068 0.11 0.163 0.11 0.267 0 0.037-0.005 0.072-0.015 0.105l0.001-0.003c-0.788 2.886-2.653 5.494-3.418 6.48-0.131 0.166-0.21 0.379-0.21 0.61 0 0.164 0.040 0.32 0.111 0.456l-0.003-0.005c0.17 0.339 0.509 0.545 0.887 0.545h0.025c3.747-0.093 8.089-1.149 10.774-3.789 0.069-0.067 0.163-0.109 0.267-0.109 0.033 0 0.064 0.004 0.095 0.012l-0.003-0.001c1.649 0.391 3.367 0.589 5.104 0.589 8.832 0 17.613-5.504 17.613-13.843zM13.581 25.789c-0.121-0.031-0.261-0.048-0.404-0.048-0.47 0-0.896 0.189-1.206 0.495l0-0c-2.684 2.64-7.068 3.239-9.142 3.373 0.947-1.309 2.487-3.712 3.212-6.359 0.039-0.137 0.062-0.294 0.062-0.457 0-0.481-0.197-0.915-0.515-1.227l-0-0c-2.279-2.223-3.485-4.893-3.485-7.724 0-6.892 7.3-12.5 16.273-12.5 8.972 0 16.272 5.609 16.272 12.502 0 6.892-7.3 12.5-16.272 12.5-1.633 0-3.247-0.186-4.794-0.553z"></path>
<path fill="#674d40" style="fill: var(--color2, #674d40)" d="M40.301 24.986c3.91-1.977 6.244-5.344 6.244-9.009 0-5.181-4.684-9.607-11.135-10.527-0.028-0.004-0.061-0.007-0.095-0.007-0.37 0-0.671 0.3-0.671 0.671 0 0.337 0.249 0.616 0.572 0.664l0.004 0c5.785 0.823 9.983 4.692 9.983 9.199 0 3.149-2.060 6.068-5.508 7.812-0.544 0.279-0.91 0.837-0.91 1.48 0 0.121 0.013 0.24 0.038 0.354l-0.002-0.011c0.327 1.536 1.023 2.96 1.58 3.924-3.961-0.659-5.462-2.56-5.936-3.382-0.292-0.496-0.823-0.823-1.431-0.823-0.001 0-0.001 0-0.002 0h-0.055c-0.742 0-1.488-0.051-2.212-0.153-0.015-0.001-0.031-0.002-0.049-0.002-0.371 0-0.672 0.301-0.672 0.672 0 0.322 0.227 0.592 0.53 0.657l0.004 0.001c0.785 0.111 1.593 0.166 2.4 0.166h0.054c0.113 0 0.217 0.058 0.271 0.153 1.817 3.148 5.993 3.951 7.703 4.151 0.378 0.044 0.737-0.129 0.94-0.451 0.093-0.146 0.149-0.324 0.149-0.515 0-0.196-0.058-0.378-0.159-0.53l0.002 0.004c-0.515-0.803-1.434-2.41-1.805-4.151-0.004-0.019-0.007-0.041-0.007-0.064 0-0.123 0.070-0.229 0.172-0.281l0.002-0.001zM7.937 11.443c-1.284 0.001-2.324 1.041-2.326 2.324v0c0.002 1.284 1.042 2.324 2.326 2.324h0c1.283-0.002 2.323-1.041 2.324-2.324v-0c-0.002-1.283-1.041-2.323-2.324-2.324h-0zM7.937 14.751c-0.011 0-0.024 0.001-0.037 0.001-0.544 0-0.985-0.441-0.985-0.985s0.441-0.985 0.985-0.985c0.014 0 0.027 0 0.040 0.001l-0.002-0c0.527 0.021 0.946 0.454 0.946 0.984s-0.42 0.963-0.946 0.984l-0.002 0zM14.567 11.443c-1.283 0.002-2.323 1.041-2.324 2.324v0c0.002 1.283 1.041 2.323 2.324 2.324h0c1.283-0.002 2.323-1.041 2.324-2.324v-0c-0.002-1.283-1.041-2.323-2.324-2.324h-0zM14.567 14.751c-0.011 0-0.024 0.001-0.036 0.001-0.544 0-0.985-0.441-0.985-0.985s0.441-0.985 0.985-0.985c0.014 0 0.028 0 0.041 0.001l-0.002-0c0.527 0.022 0.945 0.454 0.945 0.984 0 0.531-0.42 0.964-0.947 0.984l-0.002 0zM21.199 11.443c-1.283 0.002-2.323 1.041-2.324 2.324v0c0.002 1.283 1.041 2.323 2.324 2.324h0c1.283-0.002 2.323-1.041 2.324-2.324v-0c-0.002-1.283-1.041-2.323-2.324-2.324h-0zM21.199 14.751c-0.011 0-0.024 0.001-0.036 0.001-0.544 0-0.985-0.441-0.985-0.985s0.441-0.985 0.985-0.985c0.014 0 0.028 0 0.041 0.001l-0.002-0c0.527 0.022 0.945 0.454 0.945 0.984 0 0.531-0.42 0.964-0.947 0.984l-0.002 0zM27.83 11.443c-1.283 0.002-2.323 1.041-2.324 2.324v0c0.002 1.283 1.041 2.323 2.324 2.324h0c1.283-0.002 2.323-1.041 2.324-2.324v-0c-0.002-1.283-1.041-2.323-2.324-2.324h-0zM27.83 14.751c-0.011 0-0.024 0.001-0.036 0.001-0.544 0-0.985-0.441-0.985-0.985s0.441-0.985 0.985-0.985c0.014 0 0.028 0 0.041 0.001l-0.002-0c0.527 0.022 0.945 0.454 0.945 0.984 0 0.531-0.42 0.964-0.947 0.984l-0.002 0z"></path>
</symbol>
</defs>
</svg>
